{
  "accessors": [
    {
      "bufferView": 2,
      "componentType": 5126,
      "count": 52224,
      "max": [
        11.584022521972656,
        4.579351425170898,
        0.7611909508705139
      ],
      "min": [
        -11.03715705871582,
        -4.940760135650635,
        0.25245341658592224
      ],
      "type": "VEC3"
    },
    {
      "bufferView": 2,
      "byteOffset": 626688,
      "componentType": 5126,
      "count": 52224,
      "max": [
        1.0,
        1.0,
        1.0
      ],
      "min": [
        -1.0,
        -1.0,
        -1.0
      ],
      "type": "VEC3"
    },
    {
      "bufferView": 3,
      "componentType": 5126,
      "count": 52224,
      "max": [
        1.0,
        1.0,
        1.0,
        1.0
      ],
      "min": [
        -0.8443548083305359,
        -1.0,
        -1.0,
        1.0
      ],
      "type": "VEC4"
    },
    {
      "bufferView": 1,
      "componentType": 5126,
      "count": 52224,
      "max": [
        0.9489533305168152,
        0.9980080723762512
      ],
      "min": [
        0.001894118613563478,
        0.00199203216470778
      ],
      "type": "VEC2"
    },
    {
      "bufferView": 0,
      "componentType": 5125,
      "count": 101808,
      "type": "SCALAR"
    },
    {
      "bufferView": 2,
      "byteOffset": 1253376,
      "componentType": 5126,
      "count": 1248,
      "max": [
        11.940529823303223,
        5.530786991119385,
        0.28093579411506653
      ],
      "min": [
        -11.363428115844727,
        -5.430124759674072,
        -0.6196486949920654
      ],
      "type": "VEC3"
    },
    {
      "bufferView": 2,
      "byteOffset": 1268352,
      "componentType": 5126,
      "count": 1248,
      "max": [
        0.9999998807907104,
        0.9999943971633911,
        0.999994158744812
      ],
      "min": [
        -0.9999998807907104,
        -0.9999943971633911,
        -0.054080039262771606
      ],
      "type": "VEC3"
    },
    {
      "bufferView": 3,
      "byteOffset": 835584,
      "componentType": 5126,
      "count": 1248,
      "max": [
        0.9999454021453857,
        0.9931213855743408,
        1.0,
        1.0
      ],
      "min": [
        -0.9985231161117554,
        -0.9985287189483643,
        -1.0,
        -1.0
      ],
      "type": "VEC4"
    },
    {
      "bufferView": 1,
      "byteOffset": 417792,
      "componentType": 5126,
      "count": 1248,
      "max": [
        0.9365684986114502,
        0.9980080127716064
      ],
      "min": [
        0.0018693982856348157,
        0.00199203216470778
      ],
      "type": "VEC2"
    },
    {
      "bufferView": 0,
      "byteOffset": 407232,
      "componentType": 5125,
      "count": 4284,
      "type": "SCALAR"
    },
    {
      "bufferView": 2,
      "byteOffset": 1283328,
      "componentType": 5126,
      "count": 636,
      "max": [
        13.350998878479004,
        3.9929325580596924,
        1.222983717918396
      ],
      "min": [
        -12.088578224182129,
        -4.2158331871032715,
        0.26815885305404663
      ],
      "type": "VEC3"
    },
    {
      "bufferView": 2,
      "byteOffset": 1290960,
      "componentType": 5126,
      "count": 636,
      "max": [
        1.0,
        1.0,
        1.0
      ],
      "min": [
        -1.0,
        -1.0,
        -1.0
      ],
      "type": "VEC3"
    },
    {
      "bufferView": 1,
      "byteOffset": 427776,
      "componentType": 5126,
      "count": 636,
      "max": [
        0.37132418155670166,
        0.9980080127716064
      ],
      "min": [
        0.0007411661790683866,
        0.0019920319318771362
      ],
      "type": "VEC2"
    },
    {
      "bufferView": 0,
      "byteOffset": 424368,
      "componentType": 5125,
      "count": 1320,
      "type": "SCALAR"
    }
  ],
  "asset": {
    "extras": {
      "author": "Unreal Nick (https://sketchfab.com/lastnickleft)",
      "license": "CC-BY-4.0 (http://creativecommons.org/licenses/by/4.0/)",
      "source": "https://sketchfab.com/3d-models/rail-track-straight-99596461f679492bafe0ddc4a22fa1d0",
      "title": "Rail track straight"
    },
    "generator": "Sketchfab-12.68.0",
    "version": "2.0"
  },
  "bufferViews": [
    {
      "buffer": 0,
      "byteLength": 429648,
      "name": "floatBufferViews",
      "target": 34963
    },
    {
      "buffer": 0,
      "byteLength": 432864,
      "byteOffset": 429648,
      "byteStride": 8,
      "name": "floatBufferViews",
      "target": 34962
    },
    {
      "buffer": 0,
      "byteLength": 1298592,
      "byteOffset": 862512,
      "byteStride": 12,
      "name": "floatBufferViews",
      "target": 34962
    },
    {
      "buffer": 0,
      "byteLength": 855552,
      "byteOffset": 2161104,
      "byteStride": 16,
      "name": "floatBufferViews",
      "target": 34962
    }
  ],
  "buffers": [
    {
      "byteLength": 3016656,
      "uri": "scene.bin"
    }
  ],
  "images": [
    {
      "uri": "textures/screwsbase_baseColor.png"
    },
    {
      "uri": "textures/screwsbase_metallicRoughness.png"
    },
    {
      "uri": "textures/screwsbase_normal.png"
    },
    {
      "uri": "textures/woodbase_baseColor.png"
    },
    {
      "uri": "textures/woodbase_metallicRoughness.png"
    },
    {
      "uri": "textures/woodbase_normal.png"
    },
    {
      "uri": "textures/rail_baseColor.png"
    },
    {
      "uri": "textures/rail_metallicRoughness.png"
    }
  ],
  "materials": [
    {
      "doubleSided": true,
      "name": "screwsbase",
      "normalTexture": {
        "index": 2
      },
      "occlusionTexture": {
        "index": 1
      },
      "pbrMetallicRoughness": {
        "baseColorFactor": [
          0.8614710365853658,
          0.8614710365853658,
          0.8614710365853658,
          1.0
        ],
        "baseColorTexture": {
          "index": 0
        },
        "metallicFactor": 0.0,
        "metallicRoughnessTexture": {
          "index": 1
        }
      }
    },
    {
      "doubleSided": true,
      "name": "woodbase",
      "normalTexture": {
        "index": 5
      },
      "occlusionTexture": {
        "index": 4
      },
      "pbrMetallicRoughness": {
        "baseColorTexture": {
          "index": 3
        },
        "metallicFactor": 0.0,
        "metallicRoughnessTexture": {
          "index": 4
        }
      }
    },
    {
      "doubleSided": true,
      "name": "rail",
      "pbrMetallicRoughness": {
        "baseColorTexture": {
          "index": 6
        },
        "metallicRoughnessTexture": {
          "index": 7
        }
      }
    }
  ],
  "meshes": [
    {
      "name": "pasted__pasted__group13_pasted__pasted__pasted__pCylinder3_screwsbase_0",
      "primitives": [
        {
          "attributes": {
            "NORMAL": 1,
            "POSITION": 0,
            "TANGENT": 2,
            "TEXCOORD_0": 3
          },
          "indices": 4,
          "material": 0,
          "mode": 4
        }
      ]
    },
    {
      "name": "pCube6_woodbase_0",
      "primitives": [
        {
          "attributes": {
            "NORMAL": 6,
            "POSITION": 5,
            "TANGENT": 7,
            "TEXCOORD_0": 8
          },
          "indices": 9,
          "material": 1,
          "mode": 4
        }
      ]
    },
    {
      "name": "pCube7_rail_0",
      "primitives": [
        {
          "attributes": {
            "NORMAL": 11,
            "POSITION": 10,
            "TEXCOORD_0": 12
          },
          "indices": 13,
          "material": 2,
          "mode": 4
        }
      ]
    }
  ],
  "nodes": [
    {
      "children": [
        1
      ],
      "matrix": [
        1.0,
        0.0,
        0.0,
        0.0,
        0.0,
        2.220446049250313e-16,
        -1.0,
        0.0,
        0.0,
        1.0,
        2.220446049250313e-16,
        0.0,
        0.0,
        0.0,
        0.0,
        1.0
      ],
      "name": "Sketchfab_model"
    },
    {
      "children": [
        2
      ],
      "matrix": [
        1.0,
        0.0,
        0.0,
        0.0,
        0.0,
        0.0,
        1.0,
        0.0,
        0.0,
        -1.0,
        0.0,
        0.0,
        0.0,
        0.0,
        0.0,
        1.0
      ],
      "name": "5d7650fd1c0a4666a5dbcc48c27ac842.fbx"
    },
    {
      "children": [
        3,
        5,
        7
      ],
      "name": "RootNode"
    },
    {
      "children": [
        4
      ],
      "matrix": [
        1.0,
        0.0,
        0.0,
        0.0,
        0.0,
        2.220446049250313e-16,
        -1.0,
        0.0,
        0.0,
        1.0,
        2.220446049250313e-16,
        0.0,
        0.0,
        0.0,
        0.0,
        1.0
      ],
      "name": "pasted__pasted__group13_pasted__pasted__pasted__pCylinder3"
    },
    {
      "mesh": 0,
      "name": "pasted__pasted__group13_pasted__pasted__pasted__pCylinder3_screwsbase_0"
    },
    {
      "children": [
        6
      ],
      "matrix": [
        1.0,
        0.0,
        0.0,
        0.0,
        0.0,
        2.220446049250313e-16,
        -1.0,
        0.0,
        0.0,
        1.0,
        2.220446049250313e-16,
        0.0,
        0.0,
        0.0,
        2.7755575615628914e-17,
        1.0
      ],
      "name": "pCube6"
    },
    {
      "mesh": 1,
      "name": "pCube6_woodbase_0"
    },
    {
      "children": [
        8
      ],
      "matrix": [
        1.0,
        0.0,
        0.0,
        0.0,
        0.0,
        2.220446049250313e-16,
        -1.0,
        0.0,
        0.0,
        1.0,
        2.220446049250313e-16,
        0.0,
        0.0,
        0.0,
        0.0,
        1.0
      ],
      "name": "pCube7"
    },
    {
      "mesh": 2,
      "name": "pCube7_rail_0"
    }
  ],
  "samplers": [
    {
      "magFilter": 9729,
      "minFilter": 9987,
      "wrapS": 10497,
      "wrapT": 10497
    }
  ],
  "scene": 0,
  "scenes": [
    {
      "name": "Sketchfab_Scene",
      "nodes": [
        0
      ]
    }
  ],
  "textures": [
    {
      "sampler": 0,
      "source": 0
    },
    {
      "sampler": 0,
      "source": 1
    },
    {
      "sampler": 0,
      "source": 2
    },
    {
      "sampler": 0,
      "source": 3
    },
    {
      "sampler": 0,
      "source": 4
    },
    {
      "sampler": 0,
      "source": 5
    },
    {
      "sampler": 0,
      "source": 6
    },
    {
      "sampler": 0,
      "source": 7
    }
  ]
}
